<svg viewBox="0 0 375 100" width="100%" height="100%"  xmlns="http://www.w3.org/2000/svg" ><defs id="SvgjsDefs1214"></defs><g id="SvgjsG1215" featurekey="root" fill="#bcfad7"></g><g id="SvgjsG1216" featurekey="symbol1" fill="#303030" transform="matrix(0.7,0,0,0.7,0,14)"><path xmlns="http://www.w3.org/2000/svg" style="" d="M87.5,75c-3.039,0-5.725,1.221-7.886,3.016l-19.056-13.6c1.209-2.49,1.941-5.225,1.941-8.166  c0-4.041-1.318-7.775-3.491-10.828l22.29-22.302C83.154,24.207,85.193,25,87.5,25c6.909,0,12.5-5.591,12.5-12.5S94.409,0,87.5,0  S75,5.591,75,12.5c0,2.307,0.793,4.346,1.88,6.201L54.59,41.004c-3.076-2.197-6.787-3.504-10.84-3.504  c-7.153,0-13.306,4.064-16.467,9.973l-15.052-5.029C11.621,39.637,9.24,37.5,6.25,37.5C2.795,37.5,0,40.295,0,43.75  S2.795,50,6.25,50c1.574,0,2.979-0.635,4.077-1.6l14.966,4.993C25.146,54.334,25,55.273,25,56.25C25,66.602,33.398,75,43.75,75  c5.151,0,9.826-2.088,13.221-5.457l18.933,13.514C75.366,84.448,75,85.926,75,87.5c0,6.896,5.591,12.5,12.5,12.5  S100,94.396,100,87.5S94.409,75,87.5,75z" fill="#303030"></path></g><g id="SvgjsG1217" featurekey="text1" fill="#000000" transform="matrix(4.077924704991818,0,0,4.077924704991818,87.58158771351277,-32.23052912368806)"><path d="M7.7625 10.949 c0.10169 0.067797 0.16949 0.1871 0.11864 0.30575 l-0.32203 0.67797 c-0.067797 0.13543 -0.16949 0.15238 -0.30508 0.10153 c-0.27119 -0.16949 -0.79661 -0.47475 -1.5593 -0.47475 s-2.2373 0.35593 -2.2373 2.2373 l0 1.8134 l2.4576 0 c0.10169 0 0.16949 0.050847 0.16949 0.16949 l0 0.84746 c0 0.11864 -0.067797 0.18644 -0.16949 0.18644 l-2.4576 0 l0 6.9492 c0 0.15254 -0.067797 0.23712 -0.20339 0.23712 l-0.64407 0 c-0.28814 0 -0.42373 -0.20322 -0.42373 -0.49136 l0 -6.6949 l-1.4237 0 c-0.11864 0 -0.16949 -0.067797 -0.16949 -0.16949 l0 -0.67797 c0 -0.23729 0.13559 -0.3561 0.35593 -0.3561 l1.2373 0 l0 -1.8134 c0 -2.339 1.5085 -3.4408 3.4746 -3.4408 c0.83051 0 1.5424 0.23746 2.1017 0.59322 z M9.643884745762712 10.441 l-0.84729 0 c-0.15254 0 -0.22034 0.067797 -0.22034 0.22034 l0 12.864 c0 0.28797 0.15254 0.47441 0.45763 0.47441 l0.61 0 c0.13559 0 0.22034 -0.08458 0.22034 -0.23712 l0 -13.102 c0 -0.15254 -0.084746 -0.22034 -0.22034 -0.22034 z M16.118445762711865 24.10153 c2.3559 0 4.322 -1.8812 4.322 -4.288 c0 -2.4576 -1.9661 -4.339 -4.322 -4.339 c-2.3898 0 -4.3559 1.8814 -4.3559 4.339 c0 2.4068 1.9661 4.288 4.3559 4.288 z M16.118445762711865 22.8985 c-1.7797 0 -3.1017 -1.4576 -3.1017 -3.0847 c0 -1.661 1.322 -3.1186 3.1017 -3.1186 c1.7458 0 3.0678 1.4576 3.0678 3.1186 c0 1.6271 -1.322 3.0847 -3.0678 3.0847 z M29.08454406779661 23.67797 c-0.16949 -1.6441 -0.18661 -3.2714 -0.11881 -4.9154 c0.084746 -1.9661 -0.9661 -3.2542 -3.0339 -3.2542 c-1.339 0 -2.6947 0.40678 -3.5253 0.86441 c-0.13559 0.067797 -0.20339 0.20339 -0.13559 0.32203 l0.28814 0.64407 c0.050847 0.13559 0.15254 0.16949 0.32203 0.084746 c1.1695 -0.55915 2.0678 -0.77949 3 -0.77949 c1.2034 0 1.8983 0.61017 1.8475 1.9322 c-3.5763 0.61017 -5.8475 1.2034 -5.8475 3.2712 c0 1.3729 1.0169 2.2373 2.7288 2.2373 c1.4576 0 2.322 -0.45763 3.2373 -1.0339 c0.050847 0.50847 0.15254 0.94915 0.37288 0.94915 l0.71186 0 c0.15254 0 0.18644 -0.13543 0.15254 -0.32203 z M24.83014406779661 23.05068 c-0.88136 0 -1.6441 -0.33898 -1.6441 -1.2203 c0 -1.339 2.2203 -1.678 4.5254 -2.1525 c-0.033898 0.77966 -0.033898 1.7119 0 2.4068 c-0.62712 0.42373 -1.7458 0.9661 -2.8814 0.9661 z M35.847249152542375 23.50864 c0.050847 0.10169 -0.050681 0.18678 -0.16933 0.25458 c-0.3222 0.16949 -0.89847 0.32169 -1.5425 0.32169 c-1.7627 0 -2.1864 -1.0169 -2.1864 -3.1186 l0 -4.1186 l-1.0508 0 c-0.11864 0 -0.20339 -0.067797 -0.20339 -0.20339 l0 -0.25424 c0 -0.10169 0.016949 -0.16949 0.11864 -0.23729 c1.0339 -0.49136 1.5085 -1 1.9322 -3.0169 c0.033898 -0.10169 0.067797 -0.16949 0.15254 -0.16949 l0.20339 0 c0.11864 0 0.13559 0.067797 0.13559 0.18644 l0 2.4576 l2.1017 0 c0.11864 0 0.22017 0.084746 0.22017 0.22034 l0 0.81356 c0 0.11864 -0.10153 0.20339 -0.22017 0.20339 l-1.7798 0 c-0.13559 0 -0.25424 -0.016949 -0.33898 -0.050847 l0 4 c0 1.322 0.084746 2.0847 1.1017 2.0847 c0.50847 0 0.76271 -0.08458 1.0339 -0.16933 c0.16966 -0.050847 0.30525 -0.017115 0.33915 0.11848 z M38.88117288135593 10.441 l-0.84729 0 c-0.15254 0 -0.22034 0.067797 -0.22034 0.22034 l0 12.864 c0 0.28797 0.15254 0.47441 0.45763 0.47441 l0.61 0 c0.13559 0 0.22034 -0.08458 0.22034 -0.23712 l0 -13.102 c0 -0.15254 -0.084746 -0.22034 -0.22034 -0.22034 z M42.25423389830509 11.949 c-0.42373 0 -0.74576 -0.32203 -0.74576 -0.72881 s0.32203 -0.72881 0.74576 -0.72881 c0.38983 0 0.72881 0.32203 0.72881 0.72881 s-0.33898 0.72881 -0.72881 0.72881 z M42.677933898305085 15.6102 l-0.84746 -0.00016552 c-0.15254 0 -0.22034 0.067797 -0.22034 0.22034 l0 7.7119 c0 0.27119 0.15254 0.45763 0.42373 0.45763 l0.66102 0 c0.11864 0 0.20339 -0.08458 0.20339 -0.22017 l0 -7.9492 c0 -0.15254 -0.084746 -0.22034 -0.22034 -0.22034 z M53.13539152542373 23.72898 c0.016949 0.15238 -0.016784 0.27102 -0.15238 0.27102 l-0.72881 0 c-0.30508 0 -0.45763 -0.20322 -0.45763 -0.47441 l0 -4.678 c0 -1.2881 -0.81356 -2.1863 -2.3051 -2.1863 c-1.2544 0 -2.2205 0.62695 -3.0171 1.4236 l0 5.6949 c0 0.11864 -0.084746 0.22017 -0.20339 0.22017 l-0.89831 0 c-0.11864 0 -0.18644 -0.10153 -0.18644 -0.22017 l0 -7.9661 c0 -0.10169 0.084746 -0.20339 0.18644 -0.20339 l0.64407 0 c0.27119 0 0.44068 0.27119 0.45763 0.49153 l0 0.69492 c0.71186 -0.62712 1.7458 -1.3051 3.1356 -1.3051 c1.7458 0 3.4576 1.0339 3.4576 3.1863 l0 3.8136 c0.016949 0.44085 0.033898 0.84746 0.067797 1.2375 z M62.220150847457624 23.62712 c0.15254 0.16966 0.08458 0.37271 -0.13576 0.37271 l-0.98305 0 c-0.11864 0 -0.20339 -0.050847 -0.28814 -0.13543 l-4.4407 -4.0678 l0 3.9831 c0 0.13559 -0.067797 0.22017 -0.22034 0.22017 l-0.83051 0 c-0.15238 0 -0.22017 -0.08458 -0.22017 -0.22017 l0 -12.119 c0 -0.54237 -0.067797 -0.74576 -0.10169 -0.94915 c-0.016784 -0.15254 0.034064 -0.27119 0.15271 -0.27119 l0.77966 0 c0.27119 0 0.44068 0.16949 0.44068 0.4239 l0 8.6269 l3.8812 -3.7625 c0.084746 -0.10186 0.15254 -0.11881 0.25424 -0.11881 l0.98305 0 c0.20339 0 0.28814 0.22034 0.15254 0.37288 l-3.8644 3.661 z M63.79661 22.8476 l0.42356 -0.61034 c0.084746 -0.13559 0.15254 -0.16949 0.28814 -0.10169 c0.050847 0.050847 1.1017 0.76271 2.3898 0.76271 c1.4237 0 1.8644 -0.61017 1.8644 -1.1693 c0 -0.81356 -0.94915 -1.1186 -2.1017 -1.4237 c-1.6949 -0.44068 -2.8136 -1.1695 -2.8136 -2.4576 c0 -1.2373 1.0678 -2.3559 3.0339 -2.3559 c1.2203 0 2.1864 0.52542 2.7627 0.86441 c0.13559 0.067797 0.18644 0.18644 0.11864 0.28814 l-0.44068 0.64407 c-0.067797 0.11864 -0.16949 0.15254 -0.28814 0.084746 c-0.66102 -0.33898 -1.322 -0.64407 -2.1525 -0.64407 c-1.4407 0 -1.6949 0.77966 -1.6949 1.1695 c0 0.76271 0.98305 1.0678 1.9492 1.339 c1.5086 0.40678 3.051 1.0508 3.051 2.4917 c0 1.4236 -1.2881 2.3895 -3.2881 2.3895 c-1.3729 0 -2.6102 -0.6778 -3.0339 -1.0168 c-0.084746 -0.067797 -0.11864 -0.18644 -0.067797 -0.25424 z"></path></g><g id="SvgjsG1218" featurekey="text3" fill="#000000" transform="matrix(1.8453783096592944,0,0,1.8453783096592944,146.9826389061427,48.45268774112044)"><path d="M3.1738 17.822275 q0.009765625 0.048828125 0.0146484375 0.126953125 t0.0048828 0.18555 l0 0.50781 q0 0.2734375 -0.009765625 0.4833984375 t-0.0097656 0.34668 q-0.01953125 0.458984375 0.029296875 0.908203125 q0.029296875 0.322265625 0.0048828125 0.6298828125 t-0.024414 0.62988 q-0.009765625 0.361328125 -0.0537109375 0.654296875 t-0.13184 0.64453 l-0.0097656 0.039063 l0 0.019531 q-0.068359375 0.166015625 -0.283203125 0.41015625 q-1.2109375 1.03515625 -2.421875 0.15625 q-0.283203125 -0.224609375 -0.2734375 -0.439453125 q0.009765625 -0.078125 0.17578125 -0.185546875 q0.078125 -0.048828125 0.15625 -0.029296875 q0.068359375 0.01953125 0.15625 0.0634765625 t0.16602 0.073242 q0.263671875 0.15625 0.556640625 0.185546875 q0.712890625 0.05859375 1.03515625 -0.2734375 q0.21484375 -0.224609375 0.2734375 -0.5517578125 t0.058594 -0.62012 q0.009765625 -0.302734375 0.0146484375 -0.60546875 t0.024414 -0.60547 q0.009765625 -0.166015625 0 -0.390625 t-0.048828 -0.52734 l-0.10742 -0.83008 q-0.029296875 -0.15625 -0.009765625 -0.556640625 q0.029296875 -0.380859375 0.205078125 -0.517578125 q0.390625 -0.263671875 0.5078125 0.068359375 z M10.98469638404498 17.724575 q0.29296875 -0.009765625 0.29296875 0.29296875 q0 0.41015625 -0.0048828125 0.80078125 t-0.053711 0.80078 q-0.048828125 0.380859375 -0.0048828125 0.751953125 t0.043945 0.74219 l0 0.068359 l-0.039063 0.66406 q-0.01953125 0.21484375 -0.048828125 0.380859375 t-0.048828 0.27344 l-0.019531 0.039063 l-0.019531 0.068359 l0 0.0097656 q-0.029296875 0.1171875 -0.107421875 0.2392578125 t-0.1709 0.23438 t-0.2002 0.20996 t-0.19531 0.17578 q-0.166015625 0.146484375 -0.361328125 0.234375 t-0.41016 0.12695 t-0.43457 0.053711 t-0.4248 0.014648 q-0.361328125 0 -0.703125 -0.0830078125 t-0.66406 -0.27832 q-0.01953125 -0.01953125 -0.01953125 -0.029296875 q-0.029296875 -0.009765625 -0.048828125 -0.029296875 l-0.039063 -0.039063 q-0.029296875 -0.01953125 -0.048828125 -0.0341796875 t-0.039063 -0.043945 q-0.48828125 -0.517578125 -0.625 -1.2890625 q-0.05859375 -0.380859375 -0.078125 -0.7470703125 t0 -0.71777 q0.009765625 -0.087890625 0.01953125 -0.1708984375 t0.019531 -0.1709 q0.009765625 -0.1171875 0.0048828125 -0.224609375 t-0.014648 -0.20508 q-0.05859375 -0.771484375 -0.029296875 -1.826171875 q0.009765625 -0.205078125 0.25390625 -0.29296875 q0.1953125 -0.05859375 0.33203125 0.0390625 q0.078125 0.078125 0.078125 0.17578125 q0.009765625 0.13671875 0.0048828125 0.3515625 t-0.014648 0.49805 q0 0.244140625 -0.01953125 0.48828125 t-0.019531 0.47852 q0 0.29296875 -0.01953125 0.5712890625 t-0.019531 0.56152 q0 0.546875 0.17578125 1.23046875 q0.01953125 0.087890625 0.0439453125 0.1611328125 t0.043945 0.15137 q0.146484375 0.458984375 0.44921875 0.634765625 q0.224609375 0.13671875 0.83984375 0.17578125 q0.078125 0.009765625 0.15625 0.0244140625 t0.16602 0.014648 l0.0097656 0 l0.0097656 0 q0.46875 0 0.8203125 -0.166015625 t0.5957 -0.57617 q0.1953125 -0.33203125 0.1953125 -1.015625 l0 -0.21973 t0.0097656 -0.15137 q0.09765625 -0.869140625 -0.01953125 -1.81640625 q-0.01953125 -0.126953125 0.029296875 -0.46875 q0.01953125 -0.13671875 0.029296875 -0.244140625 t0.0097656 -0.18555 q0 -0.419921875 0.05859375 -0.56640625 q0.078125 -0.146484375 0.2734375 -0.146484375 z M18.82482401808996 22.958975 q-0.166015625 0.205078125 -0.3173828125 0.361328125 t-0.31738 0.26855 t-0.36621 0.18555 t-0.4541 0.10254 q-0.126953125 0.01953125 -0.263671875 0.0244140625 t-0.29297 -0.014648 q-0.21484375 -0.01953125 -0.419921875 -0.01953125 t-0.41992 -0.048828 q-0.46875 -0.107421875 -0.78125 -0.322265625 t-0.47852 -0.55664 q-0.21484375 -0.46875 0.244140625 -0.48828125 q0.078125 0 0.1806640625 0.1123046875 t0.16113 0.1709 q0.205078125 0.205078125 0.234375 0.224609375 l0.0097656 0 l0 0.0097656 q0.478515625 0.33203125 1.26953125 0.33203125 l0.0097656 0 l0.0097656 0 q0.33203125 0 0.849609375 -0.13671875 q0.5078125 -0.126953125 0.673828125 -0.517578125 q0.087890625 -0.234375 0 -0.5078125 l0 -0.0097656 q-0.244140625 -0.517578125 -0.947265625 -0.693359375 l-1.2012 -0.3125 q-0.25390625 -0.05859375 -0.615234375 -0.244140625 q-0.185546875 -0.09765625 -0.322265625 -0.17578125 t-0.22461 -0.15625 q-0.400390625 -0.29296875 -0.46875 -0.5859375 q-0.009765625 -0.048828125 -0.009765625 -0.13671875 l0 -0.21484 q0 -0.13671875 0.01953125 -0.2685546875 t0.039063 -0.27832 q0.05859375 -0.44921875 0.380859375 -0.80078125 q0.146484375 -0.146484375 0.3564453125 -0.2490234375 t0.40527 -0.19043 q0.2734375 -0.126953125 0.5712890625 -0.1318359375 t0.59082 0.0048828 q0.95703125 0.029296875 1.494140625 0.673828125 q0.244140625 0.302734375 0.185546875 0.498046875 l-0.068359 0.058594 q-0.15625 0.078125 -0.37109375 -0.107421875 q-0.05859375 -0.0390625 -0.107421875 -0.087890625 l-0.097656 -0.097656 t-0.12695 -0.10254 t-0.17578 -0.10254 l-0.019531 -0.019531 l-0.029297 0 q-0.361328125 -0.107421875 -0.7373046875 -0.126953125 t-0.77637 0.068359 q-0.478515625 0.107421875 -0.732421875 0.3955078125 t-0.25391 0.7666 l0 0.019531 l0.0097656 0.019531 q0.0390625 0.60546875 0.9375 0.859375 l0.2832 0.078125 l0.72266 0.24414 q0.166015625 0.05859375 0.33203125 0.1318359375 t0.35156 0.15137 q0.2734375 0.126953125 0.5078125 0.244140625 t0.42969 0.24414 q0.13671875 0.087890625 0.2099609375 0.21484375 t0.097656 0.27344 t0.019531 0.30273 t-0.03418 0.2832 q-0.01953125 0.107421875 -0.0634765625 0.205078125 t-0.092773 0.17578 z M26.79197665213494 18.193375 q-0.13671875 0.15625 -0.44921875 0.13671875 l-0.48828 -0.029297 q-0.146484375 -0.009765625 -0.283203125 -0.01953125 t-0.2832 -0.0097656 q-0.29296875 -0.009765625 -0.4296875 0.126953125 q-0.107421875 0.126953125 -0.107421875 0.419921875 q0 0.13671875 0.0146484375 0.2685546875 t0.014648 0.26855 q0.009765625 0.322265625 0.0146484375 0.5615234375 t0.0048828 0.40527 q0 0.498046875 -0.05859375 0.99609375 q-0.029296875 0.234375 0 0.46875 t0.039063 0.45898 q0.009765625 0.25390625 0.0146484375 0.439453125 t0.0048828 0.3125 l0 0.13184 t-0.0097656 0.20996 q-0.01953125 0.263671875 -0.0390625 0.322265625 q-0.126953125 0.21484375 -0.33203125 0.15625 q-0.25390625 -0.048828125 -0.25390625 -0.37109375 q-0.009765625 -0.29296875 0.0146484375 -0.5908203125 t0.043945 -0.59082 q0.029296875 -0.341796875 -0.0048828125 -0.693359375 t-0.03418 -0.70313 q0 -0.322265625 0.0244140625 -0.6494140625 t0.03418 -0.64941 q0 -0.634765625 -0.205078125 -0.8984375 q-0.107421875 -0.13671875 -0.2587890625 -0.2099609375 t-0.33691 -0.092773 t-0.34668 -0.03418 t-0.31738 -0.014648 l-0.29785 0 t-0.27832 -0.058594 q-0.078125 -0.0390625 -0.09765625 -0.185546875 q-0.01953125 -0.107421875 0.029296875 -0.185546875 q0.068359375 -0.1171875 0.341796875 -0.146484375 q0.029296875 -0.009765625 0.107421875 -0.009765625 q0.41015625 -0.009765625 0.7958984375 0.0341796875 t0.7959 0.014648 q0.166015625 -0.009765625 0.3271484375 -0.029296875 t0.33691 -0.019531 l0.64941 0 t0.64941 -0.0097656 q0.166015625 0 0.2880859375 0.009765625 t0.20996 0.048828 q0.302734375 0.205078125 0.15625 0.41015625 z  M38.526922545224906 22.958975 q-0.166015625 0.205078125 -0.3173828125 0.361328125 t-0.31738 0.26855 t-0.36621 0.18555 t-0.4541 0.10254 q-0.126953125 0.01953125 -0.263671875 0.0244140625 t-0.29297 -0.014648 q-0.21484375 -0.01953125 -0.419921875 -0.01953125 t-0.41992 -0.048828 q-0.46875 -0.107421875 -0.78125 -0.322265625 t-0.47852 -0.55664 q-0.21484375 -0.46875 0.244140625 -0.48828125 q0.078125 0 0.1806640625 0.1123046875 t0.16113 0.1709 q0.205078125 0.205078125 0.234375 0.224609375 l0.0097656 0 l0 0.0097656 q0.478515625 0.33203125 1.26953125 0.33203125 l0.0097656 0 l0.0097656 0 q0.33203125 0 0.849609375 -0.13671875 q0.5078125 -0.126953125 0.673828125 -0.517578125 q0.087890625 -0.234375 0 -0.5078125 l0 -0.0097656 q-0.244140625 -0.517578125 -0.947265625 -0.693359375 l-1.2012 -0.3125 q-0.25390625 -0.05859375 -0.615234375 -0.244140625 q-0.185546875 -0.09765625 -0.322265625 -0.17578125 t-0.22461 -0.15625 q-0.400390625 -0.29296875 -0.46875 -0.5859375 q-0.009765625 -0.048828125 -0.009765625 -0.13671875 l0 -0.21484 q0 -0.13671875 0.01953125 -0.2685546875 t0.039063 -0.27832 q0.05859375 -0.44921875 0.380859375 -0.80078125 q0.146484375 -0.146484375 0.3564453125 -0.2490234375 t0.40527 -0.19043 q0.2734375 -0.126953125 0.5712890625 -0.1318359375 t0.59082 0.0048828 q0.95703125 0.029296875 1.494140625 0.673828125 q0.244140625 0.302734375 0.185546875 0.498046875 l-0.068359 0.058594 q-0.15625 0.078125 -0.37109375 -0.107421875 q-0.05859375 -0.0390625 -0.107421875 -0.087890625 l-0.097656 -0.097656 t-0.12695 -0.10254 t-0.17578 -0.10254 l-0.019531 -0.019531 l-0.029297 0 q-0.361328125 -0.107421875 -0.7373046875 -0.126953125 t-0.77637 0.068359 q-0.478515625 0.107421875 -0.732421875 0.3955078125 t-0.25391 0.7666 l0 0.019531 l0.0097656 0.019531 q0.0390625 0.60546875 0.9375 0.859375 l0.2832 0.078125 l0.72266 0.24414 q0.166015625 0.05859375 0.33203125 0.1318359375 t0.35156 0.15137 q0.2734375 0.126953125 0.5078125 0.244140625 t0.42969 0.24414 q0.13671875 0.087890625 0.2099609375 0.21484375 t0.097656 0.27344 t0.019531 0.30273 t-0.03418 0.2832 q-0.01953125 0.107421875 -0.0634765625 0.205078125 t-0.092773 0.17578 z M45.76157517926988 22.929675 q0.458984375 -0.263671875 0.537109375 0.17578125 q0.0390625 0.185546875 -0.1953125 0.361328125 q-0.107421875 0.078125 -0.2001953125 0.1318359375 t-0.1709 0.083008 q-0.224609375 0.09765625 -0.4052734375 0.1416015625 t-0.31738 0.063477 q-0.25390625 0.01953125 -0.537109375 0.01953125 t-0.5957 -0.048828 q-0.634765625 -0.09765625 -1.025390625 -0.439453125 q-0.361328125 -0.302734375 -0.595703125 -0.732421875 t-0.38086 -0.86914 l-0.019531 -0.058594 q-0.087890625 -0.283203125 -0.0634765625 -0.6298828125 t0.014648 -0.64941 q0 -0.234375 0.009765625 -0.4150390625 t0.048828 -0.30762 q0.068359375 -0.244140625 0.3125 -0.6640625 q0.263671875 -0.46875 0.595703125 -0.810546875 t0.89844 -0.45898 q0.146484375 -0.01953125 0.5078125 -0.1171875 q0.107421875 -0.029296875 0.2392578125 -0.048828125 t0.29785 -0.0097656 q0.126953125 0 0.2978515625 0.029296875 t0.39551 0.078125 q0.15625 0.048828125 0.478515625 0.205078125 q0.302734375 0.126953125 0.361328125 0.341796875 q0.01953125 0.078125 -0.01953125 0.166015625 q-0.087890625 0.146484375 -0.205078125 0.17578125 q-0.068359375 0.01953125 -0.1708984375 0 t-0.24902 -0.097656 q-0.1953125 -0.09765625 -0.361328125 -0.166015625 t-0.33691 -0.10254 t-0.35156 -0.024414 t-0.39551 0.068359 q-0.5078125 0.15625 -0.712890625 0.263671875 q-0.21484375 0.1171875 -0.5078125 0.556640625 q-0.234375 0.341796875 -0.3564453125 0.7177734375 t-0.1416 0.77148 t0.063477 0.78613 t0.25879 0.75195 l0 0.0097656 l0.0097656 0 q0.419921875 0.78125 1.201171875 0.9765625 q0.56640625 0.13671875 0.87890625 0.05859375 q0.087890625 -0.009765625 0.166015625 -0.029296875 t0.16602 -0.039063 q0.33203125 -0.068359375 0.576171875 -0.21484375 z M51.35570906331487 19.990275 q0.3515625 0.009765625 0.703125 0.0244140625 t0.70313 0.063477 q0.2734375 0.0390625 0.419921875 -0.1171875 q0.107421875 -0.1171875 0.1025390625 -0.29296875 t-0.0048828 -0.33203 q0.009765625 -0.244140625 0.009765625 -0.4248046875 l0 -0.29785 q0 -0.05859375 0.0048828125 -0.15625 t0.0097656 -0.2002 t0.019531 -0.2002 t0.043945 -0.15625 q0.087890625 -0.205078125 0.322265625 -0.185546875 q0.25390625 0.029296875 0.25390625 0.439453125 q-0.009765625 0.244140625 -0.029296875 0.48828125 t0 0.47852 l0 0.0097656 q0 0.390625 0.01953125 0.78125 t0.039063 0.77148 q0.01953125 0.234375 0 0.4736328125 t-0.019531 0.47363 q-0.009765625 0.41015625 -0.009765625 0.8154296875 l0 0.81543 q0 0.361328125 -0.068359375 0.46875 q-0.0390625 0.068359375 -0.15625 0.09765625 q-0.3515625 0.087890625 -0.400390625 -0.3125 q-0.048828125 -0.498046875 -0.0341796875 -1.005859375 t-0.0048828 -1.0156 q-0.009765625 -0.185546875 -0.0439453125 -0.41015625 t-0.19043 -0.36133 q-0.146484375 -0.1171875 -0.5078125 -0.1171875 q-0.17578125 0 -0.3466796875 0.009765625 t-0.34668 0 l-0.55664 0 q-0.17578125 0.009765625 -0.3466796875 -0.0048828125 t-0.34668 -0.024414 q-0.37109375 -0.029296875 -0.556640625 0.09765625 q-0.224609375 0.1953125 -0.224609375 0.654296875 q0 0.302734375 0.009765625 0.6103515625 t0.0097656 0.60059 q0 0.244140625 -0.009765625 0.4248046875 t-0.0097656 0.30762 q-0.009765625 0.13671875 -0.01953125 0.234375 t-0.029297 0.16602 q-0.107421875 0.205078125 -0.341796875 0.146484375 q-0.234375 -0.0390625 -0.234375 -0.361328125 l0 -0.63477 t0.0097656 -0.63477 q0.009765625 -0.302734375 0 -0.6103515625 t-0.0097656 -0.62012 q0 -0.498046875 0.009765625 -0.99609375 l0.019531 -0.99609 q0 -0.078125 -0.009765625 -0.21484375 t-0.019531 -0.3418 q-0.01953125 -0.419921875 0.029296875 -0.52734375 q0.126953125 -0.185546875 0.29296875 -0.17578125 q0.29296875 0.009765625 0.322265625 0.458984375 q0.009765625 0.1171875 0.0146484375 0.205078125 t0.0048828 0.15625 l0 0.13672 t-0.019531 0.20508 l-0.039063 0.29297 t-0.019531 0.2832 q-0.01953125 0.3125 0.1171875 0.4296875 q0.146484375 0.107421875 0.390625 0.068359375 q0.13671875 -0.009765625 0.234375 -0.009765625 l0.16602 0 q0.166015625 0.009765625 0.33203125 0.029296875 t0.3418 0.019531 z M57.31106482235985 23.251955 q-0.009765625 -0.595703125 -0.0048828125 -1.19140625 t0.0048828 -1.1914 l0 -0.3418 q0 -0.263671875 -0.0146484375 -0.5322265625 t0.0048828 -0.53223 q0.009765625 -0.29296875 0.009765625 -0.5810546875 t0.0097656 -0.58105 q0 -0.3515625 0.166015625 -0.48828125 q0.126953125 -0.09765625 0.44921875 -0.09765625 q0.166015625 -0.009765625 0.2880859375 -0.0146484375 t0.20996 -0.0048828 q0.380859375 -0.009765625 0.76171875 0.0048828125 t0.76172 0.0048828 q0.205078125 -0.009765625 0.41015625 -0.0146484375 t0.40039 0.014648 l0.49805 0.029297 q0.087890625 0.009765625 0.1513671875 0.009765625 t0.1123 0.019531 q0.205078125 0.107421875 0.1953125 0.302734375 q-0.009765625 0.087890625 -0.068359375 0.1416015625 t-0.13184 0.083008 t-0.15137 0.039063 t-0.13672 0.0097656 q-0.595703125 0 -1.181640625 -0.029296875 q-0.05859375 -0.009765625 -0.146484375 -0.009765625 l-0.19531 0 l-0.56641 0 q-0.224609375 0 -0.400390625 0.0048828125 t-0.29297 0.0048828 q-0.166015625 0.009765625 -0.2734375 0.0439453125 t-0.15625 0.1123 q-0.078125 0.1171875 -0.05859375 0.29296875 l0 0.13672 t-0.0097656 0.10742 q-0.01953125 0.1171875 -0.029296875 0.2490234375 t0 0.28809 q0 0.2734375 0.21484375 0.458984375 q0.17578125 0.15625 0.634765625 0.126953125 q0.205078125 -0.009765625 0.4052734375 -0.0341796875 t0.40527 -0.014648 q0.087890625 0 0.2294921875 0.0048828125 t0.33691 -0.0048828 q0.390625 -0.009765625 0.52734375 0.13671875 q0.048828125 0.068359375 0.0390625 0.224609375 q-0.029296875 0.17578125 -0.2734375 0.21484375 q-0.224609375 0.0390625 -0.361328125 0.0390625 q-0.17578125 0.009765625 -0.3466796875 0.0048828125 t-0.34668 0.0048828 q-0.21484375 0.01953125 -0.439453125 0.009765625 t-0.46875 -0.029297 q-0.029296875 0 -0.068359375 -0.0048828125 t-0.068359 -0.0048828 l-0.0097656 0 q-0.107421875 -0.01953125 -0.21484375 0.048828125 q-0.17578125 0.107421875 -0.1953125 0.37109375 q-0.01953125 0.25390625 0 0.439453125 q0.009765625 0.107421875 0.0146484375 0.1953125 t-0.0048828 0.15625 q-0.01953125 0.146484375 -0.0341796875 0.2880859375 t-0.03418 0.28809 q-0.029296875 0.37109375 0.09765625 0.556640625 q0.166015625 0.224609375 0.576171875 0.224609375 q0.322265625 0 0.654296875 -0.0146484375 t0.66406 -0.03418 q0.302734375 -0.009765625 0.6201171875 0.01953125 t0.62988 0.029297 q0.1171875 0 0.3125 -0.0048828125 t0.30273 0.053711 q0.09765625 0.05859375 0.107421875 0.17578125 q0.107421875 0.3515625 -0.302734375 0.37109375 q-0.64453125 0.029296875 -1.264648438 0.01953125 t-1.2451 0 q-0.0390625 0 -0.0732421875 0.0048828125 t-0.063477 0.0048828 l-0.38574 0 t-0.26855 -0.0097656 q-0.068359375 0 -0.1611328125 -0.0048828125 t-0.20996 -0.014648 q-0.09765625 -0.009765625 -0.1611328125 -0.01953125 t-0.092773 -0.019531 q-0.29296875 -0.087890625 -0.29296875 -0.546875 z M68.81330183140484 18.359375 l0.029297 0.029297 q0.107421875 0.126953125 0.2001953125 0.283203125 t0.1709 0.35156 q0.05859375 0.13671875 0.1318359375 0.2587890625 t0.12207 0.25879 q0.078125 0.21484375 0.1171875 0.390625 t0.048828 0.33203 t0.0048828 0.33691 t-0.03418 0.40527 q-0.01953125 0.1953125 -0.01953125 0.3857421875 t-0.039063 0.38574 q-0.048828125 0.25390625 -0.1513671875 0.5029296875 t-0.23926 0.47363 q-0.244140625 0.390625 -0.68359375 0.712890625 l-0.078125 0.039063 q-0.107421875 0.078125 -0.185546875 0.087890625 q-0.107421875 0.048828125 -0.205078125 0.0830078125 t-0.18555 0.053711 q-0.5078125 0.1171875 -1.044921875 0.1025390625 t-1.0449 -0.0048828 q-0.185546875 0 -0.44921875 0.0048828125 t-0.41992 -0.092773 q-0.13671875 -0.068359375 -0.17578125 -0.263671875 q-0.009765625 -0.0390625 -0.009765625 -0.166015625 q0 -0.46875 0.009765625 -0.9326171875 t0.029297 -0.93262 q0.01953125 -0.234375 -0.009765625 -0.4833984375 t-0.029297 -0.49316 l0 -1.0156 l0 -0.82031 q0 -0.5859375 0.146484375 -0.76171875 q0.15625 -0.166015625 0.478515625 -0.15625 q0.166015625 0.009765625 0.3076171875 0.0048828125 t0.24902 -0.0048828 q0.37109375 -0.009765625 0.7568359375 0.009765625 t0.7959 0.039063 q0.80078125 0.048828125 1.40625 0.5859375 l0 0.0097656 z M67.53400183140484 18.388675 l-0.0097656 0 q-0.13671875 -0.01953125 -0.3369140625 -0.01953125 t-0.46387 0.019531 q-0.478515625 0.029296875 -0.7421875 -0.009765625 q-0.4296875 -0.068359375 -0.52734375 0 q-0.146484375 0.107421875 -0.146484375 0.419921875 t0.0097656 0.61523 t-0.0097656 0.5957 q-0.048828125 0.732421875 -0.0341796875 1.450195313 t0.014648 1.4307 q0 0.166015625 0.1171875 0.263671875 q0.1171875 0.107421875 0.458984375 0.05859375 q0.009765625 0 0.0244140625 -0.0048828125 t0.024414 -0.0048828 q0.1953125 -0.009765625 0.3662109375 -0.0048828125 t0.32715 0.014648 q0.5859375 0.0390625 1.123046875 -0.05859375 q0.546875 -0.1171875 0.849609375 -0.712890625 q0.13671875 -0.263671875 0.2392578125 -0.5078125 t0.16113 -0.49316 t0.073242 -0.5127 t-0.014648 -0.57617 q-0.05859375 -0.60546875 -0.390625 -1.201171875 q-0.166015625 -0.283203125 -0.4443359375 -0.46875 t-0.65918 -0.2832 z M77.33708571544982 17.724575 q0.29296875 -0.009765625 0.29296875 0.29296875 q0 0.41015625 -0.0048828125 0.80078125 t-0.053711 0.80078 q-0.048828125 0.380859375 -0.0048828125 0.751953125 t0.043945 0.74219 l0 0.068359 l-0.039063 0.66406 q-0.01953125 0.21484375 -0.048828125 0.380859375 t-0.048828 0.27344 l-0.019531 0.039063 l-0.019531 0.068359 l0 0.0097656 q-0.029296875 0.1171875 -0.107421875 0.2392578125 t-0.1709 0.23438 t-0.2002 0.20996 t-0.19531 0.17578 q-0.166015625 0.146484375 -0.361328125 0.234375 t-0.41016 0.12695 t-0.43457 0.053711 t-0.4248 0.014648 q-0.361328125 0 -0.703125 -0.0830078125 t-0.66406 -0.27832 q-0.01953125 -0.01953125 -0.01953125 -0.029296875 q-0.029296875 -0.009765625 -0.048828125 -0.029296875 l-0.039063 -0.039063 q-0.029296875 -0.01953125 -0.048828125 -0.0341796875 t-0.039063 -0.043945 q-0.48828125 -0.517578125 -0.625 -1.2890625 q-0.05859375 -0.380859375 -0.078125 -0.7470703125 t0 -0.71777 q0.009765625 -0.087890625 0.01953125 -0.1708984375 t0.019531 -0.1709 q0.009765625 -0.1171875 0.0048828125 -0.224609375 t-0.014648 -0.20508 q-0.05859375 -0.771484375 -0.029296875 -1.826171875 q0.009765625 -0.205078125 0.25390625 -0.29296875 q0.1953125 -0.05859375 0.33203125 0.0390625 q0.078125 0.078125 0.078125 0.17578125 q0.009765625 0.13671875 0.0048828125 0.3515625 t-0.014648 0.49805 q0 0.244140625 -0.01953125 0.48828125 t-0.019531 0.47852 q0 0.29296875 -0.01953125 0.5712890625 t-0.019531 0.56152 q0 0.546875 0.17578125 1.23046875 q0.01953125 0.087890625 0.0439453125 0.1611328125 t0.043945 0.15137 q0.146484375 0.458984375 0.44921875 0.634765625 q0.224609375 0.13671875 0.83984375 0.17578125 q0.078125 0.009765625 0.15625 0.0244140625 t0.16602 0.014648 l0.0097656 0 l0.0097656 0 q0.46875 0 0.8203125 -0.166015625 t0.5957 -0.57617 q0.1953125 -0.33203125 0.1953125 -1.015625 l0 -0.21973 t0.0097656 -0.15137 q0.09765625 -0.869140625 -0.01953125 -1.81640625 q-0.01953125 -0.126953125 0.029296875 -0.46875 q0.01953125 -0.13671875 0.029296875 -0.244140625 t0.0097656 -0.18555 q0 -0.419921875 0.05859375 -0.56640625 q0.078125 -0.146484375 0.2734375 -0.146484375 z M84.7280133494948 23.330075 q0.1171875 0.078125 0.1171875 0.21484375 q0.009765625 0.322265625 -0.380859375 0.322265625 q-0.703125 0 -1.40625 -0.01953125 t-1.4063 0.029297 q-0.556640625 0.029296875 -0.673828125 -0.302734375 q-0.05859375 -0.146484375 -0.05859375 -0.458984375 q0.009765625 -0.166015625 0.0146484375 -0.2880859375 t0.0048828 -0.20996 q0.009765625 -0.21484375 0.0244140625 -0.4443359375 t0.0048828 -0.4541 q-0.01953125 -0.46875 -0.0390625 -0.9130859375 t-0.0097656 -0.91309 q0.009765625 -0.224609375 0.01953125 -0.4443359375 t0.0097656 -0.4541 q0.009765625 -0.283203125 0.0048828125 -0.5224609375 t-0.024414 -0.43457 q-0.01953125 -0.263671875 0.244140625 -0.3125 q0.380859375 -0.078125 0.41015625 0.44921875 q0.01953125 0.224609375 0.029296875 0.4345703125 t0.029297 0.40527 l0 0.25391 l-0.039063 0.37109 q-0.01953125 0.15625 -0.0341796875 0.3125 t-0.024414 0.30273 q-0.01953125 0.37109375 -0.01953125 0.6494140625 t0.0097656 0.46387 q0.01953125 0.234375 0.0244140625 0.48828125 t-0.014648 0.53711 q-0.01953125 0.4296875 0.1171875 0.56640625 q0.107421875 0.126953125 0.458984375 0.15625 q0.17578125 0.01953125 0.3466796875 0.029296875 t0.34668 0.029297 q0.263671875 0.029296875 0.537109375 0.0048828125 t0.54688 0.014648 q0.17578125 0.01953125 0.4248046875 0.0341796875 t0.40527 0.10254 z M87.58769098353979 23.251955 q-0.009765625 -0.595703125 -0.0048828125 -1.19140625 t0.0048828 -1.1914 l0 -0.3418 q0 -0.263671875 -0.0146484375 -0.5322265625 t0.0048828 -0.53223 q0.009765625 -0.29296875 0.009765625 -0.5810546875 t0.0097656 -0.58105 q0 -0.3515625 0.166015625 -0.48828125 q0.126953125 -0.09765625 0.44921875 -0.09765625 q0.166015625 -0.009765625 0.2880859375 -0.0146484375 t0.20996 -0.0048828 q0.380859375 -0.009765625 0.76171875 0.0048828125 t0.76172 0.0048828 q0.205078125 -0.009765625 0.41015625 -0.0146484375 t0.40039 0.014648 l0.49805 0.029297 q0.087890625 0.009765625 0.1513671875 0.009765625 t0.1123 0.019531 q0.205078125 0.107421875 0.1953125 0.302734375 q-0.009765625 0.087890625 -0.068359375 0.1416015625 t-0.13184 0.083008 t-0.15137 0.039063 t-0.13672 0.0097656 q-0.595703125 0 -1.181640625 -0.029296875 q-0.05859375 -0.009765625 -0.146484375 -0.009765625 l-0.19531 0 l-0.56641 0 q-0.224609375 0 -0.400390625 0.0048828125 t-0.29297 0.0048828 q-0.166015625 0.009765625 -0.2734375 0.0439453125 t-0.15625 0.1123 q-0.078125 0.1171875 -0.05859375 0.29296875 l0 0.13672 t-0.0097656 0.10742 q-0.01953125 0.1171875 -0.029296875 0.2490234375 t0 0.28809 q0 0.2734375 0.21484375 0.458984375 q0.17578125 0.15625 0.634765625 0.126953125 q0.205078125 -0.009765625 0.4052734375 -0.0341796875 t0.40527 -0.014648 q0.087890625 0 0.2294921875 0.0048828125 t0.33691 -0.0048828 q0.390625 -0.009765625 0.52734375 0.13671875 q0.048828125 0.068359375 0.0390625 0.224609375 q-0.029296875 0.17578125 -0.2734375 0.21484375 q-0.224609375 0.0390625 -0.361328125 0.0390625 q-0.17578125 0.009765625 -0.3466796875 0.0048828125 t-0.34668 0.0048828 q-0.21484375 0.01953125 -0.439453125 0.009765625 t-0.46875 -0.029297 q-0.029296875 0 -0.068359375 -0.0048828125 t-0.068359 -0.0048828 l-0.0097656 0 q-0.107421875 -0.01953125 -0.21484375 0.048828125 q-0.17578125 0.107421875 -0.1953125 0.37109375 q-0.01953125 0.25390625 0 0.439453125 q0.009765625 0.107421875 0.0146484375 0.1953125 t-0.0048828 0.15625 q-0.01953125 0.146484375 -0.0341796875 0.2880859375 t-0.03418 0.28809 q-0.029296875 0.37109375 0.09765625 0.556640625 q0.166015625 0.224609375 0.576171875 0.224609375 q0.322265625 0 0.654296875 -0.0146484375 t0.66406 -0.03418 q0.302734375 -0.009765625 0.6201171875 0.01953125 t0.62988 0.029297 q0.1171875 0 0.3125 -0.0048828125 t0.30273 0.053711 q0.09765625 0.05859375 0.107421875 0.17578125 q0.107421875 0.3515625 -0.302734375 0.37109375 q-0.64453125 0.029296875 -1.264648438 0.01953125 t-1.2451 0 q-0.0390625 0 -0.0732421875 0.0048828125 t-0.063477 0.0048828 l-0.38574 0 t-0.26855 -0.0097656 q-0.068359375 0 -0.1611328125 -0.0048828125 t-0.20996 -0.014648 q-0.09765625 -0.009765625 -0.1611328125 -0.01953125 t-0.092773 -0.019531 q-0.29296875 -0.087890625 -0.29296875 -0.546875 z"></path></g></svg>